<?xml version="1.0" encoding="utf-8"?>
<!-- Generator: Adobe Illustrator 16.0.0, SVG Export Plug-In . SVG Version: 6.00 Build 0)  -->
<!DOCTYPE svg PUBLIC "-//W3C//DTD SVG 1.1//EN" "http://www.w3.org/Graphics/SVG/1.1/DTD/svg11.dtd">
<svg version="1.1" id="레이어_1" xmlns="http://www.w3.org/2000/svg" xmlns:xlink="http://www.w3.org/1999/xlink" x="0px"
	 y="0px" viewBox="0 0 40 40" enable-background="new 0 0 40 40" xml:space="preserve">
<path fill="#363636" d="M20,0.162C9.044,0.162,0.162,9.044,0.162,20c0,10.957,8.882,19.838,19.838,19.838
	c10.957,0,19.838-8.881,19.838-19.838C39.838,9.044,30.957,0.162,20,0.162z"/>
<g>
	<path fill="#FFFFFF" d="M20,8.112c3.87,0,4.33,0.016,5.86,0.085c1.413,0.064,2.178,0.302,2.692,0.5
		c0.676,0.263,1.161,0.578,1.667,1.084c0.509,0.506,0.821,0.991,1.086,1.667c0.197,0.51,0.434,1.278,0.498,2.692
		c0.069,1.529,0.083,1.988,0.083,5.859c0,3.87-0.014,4.33-0.083,5.858c-0.064,1.413-0.301,2.181-0.498,2.694
		c-0.265,0.678-0.577,1.161-1.086,1.667c-0.506,0.509-0.991,0.822-1.667,1.086c-0.515,0.197-1.279,0.434-2.692,0.498
		c-1.53,0.069-1.99,0.083-5.86,0.083c-3.871,0-4.33-0.014-5.859-0.083c-1.413-0.064-2.182-0.301-2.692-0.498
		c-0.676-0.264-1.16-0.577-1.667-1.086c-0.507-0.506-0.823-0.989-1.085-1.667c-0.198-0.514-0.435-1.281-0.5-2.694
		C8.128,24.33,8.112,23.87,8.112,20c0-3.871,0.016-4.33,0.084-5.859c0.065-1.414,0.302-2.182,0.5-2.692
		c0.262-0.677,0.578-1.162,1.085-1.667c0.508-0.507,0.991-0.822,1.667-1.084c0.51-0.198,1.279-0.436,2.692-0.5
		C15.67,8.128,16.129,8.112,20,8.112 M20,5.5c-3.938,0-4.432,0.017-5.979,0.088c-1.542,0.07-2.596,0.314-3.519,0.673
		C9.549,6.632,8.74,7.128,7.934,7.933c-0.807,0.807-1.302,1.616-1.673,2.57c-0.359,0.921-0.603,1.975-0.672,3.519
		C5.518,15.568,5.5,16.062,5.5,20c0,3.938,0.018,4.433,0.089,5.979c0.069,1.545,0.313,2.597,0.672,3.52
		c0.371,0.953,0.866,1.764,1.673,2.568c0.806,0.81,1.615,1.303,2.569,1.673c0.922,0.357,1.977,0.604,3.519,0.676
		C15.568,34.484,16.062,34.5,20,34.5c3.938,0,4.433-0.016,5.979-0.085c1.544-0.072,2.596-0.318,3.519-0.676
		c0.954-0.37,1.764-0.863,2.569-1.673c0.807-0.805,1.302-1.615,1.672-2.568c0.358-0.923,0.603-1.975,0.676-3.52
		C34.484,24.433,34.5,23.938,34.5,20c0-3.938-0.016-4.432-0.085-5.979c-0.073-1.543-0.317-2.598-0.676-3.519
		c-0.37-0.954-0.865-1.763-1.672-2.57c-0.806-0.805-1.615-1.301-2.569-1.671c-0.923-0.359-1.975-0.604-3.519-0.673
		C24.433,5.517,23.938,5.5,20,5.5L20,5.5z"/>
	<path fill="#FFFFFF" d="M20,12.555c-4.112,0-7.446,3.334-7.446,7.445c0,4.115,3.333,7.447,7.446,7.447
		c4.113,0,7.447-3.332,7.447-7.447C27.447,15.889,24.113,12.555,20,12.555z M20,24.834c-2.669,0-4.833-2.164-4.833-4.834
		c0-2.668,2.165-4.833,4.833-4.833c2.67,0,4.834,2.165,4.834,4.833C24.834,22.67,22.67,24.834,20,24.834z"/>
	<circle fill="#FFFFFF" cx="27.74" cy="12.26" r="1.739"/>
</g>
</svg>
